<svg xmlns="http://www.w3.org/2000/svg" xmlns:xlink="http://www.w3.org/1999/xlink" xml:space="preserve" style="shape-rendering:geometricPrecision;text-rendering:geometricPrecision;image-rendering:optimizeQuality;" viewBox="0 0 100 125" x="0px" y="0px" fill-rule="evenodd" clip-rule="evenodd"><defs><style type="text/css">
   
    .fil0 {fill:black}
   
  </style></defs><g><path class="fil0" d="M71.3852 26.3837c-6.21265,-18.1891 -29.2266,-19.7565 -37.5806,-2.86892 -12.0131,-0.666147 -19.1187,7.93825 -19.0135,16.0631 -15.1218,2.16498 -11.7958,29.94 3.56696,29.94l5.64571 0 0 -6.38391 -5.64571 0c-9.57527,0 -9.28118,-21.5317 2.88782,-18.032 -0.153545,-11.9399 4.46933,-15.6415 16.4139,-14.98 5.66934,-16.1352 25.5309,-16.0407 29.4416,3.46774 14.4202,-3.59058 25.2002,4.95713 20.7722,21.7419 -1.46576,5.55713 -6.33194,7.21777 -11.4154,7.65833l0 6.38037c9.01779,-0.73347 15.4064,-4.32641 17.5785,-12.3757 3.92247,-14.5336 -4.25555,-33.7479 -22.6514,-30.6109zm-16.636 26.8195l13.147 0 0 20.784 5.77682 0 -12.3509 14.2726 -12.3497 -14.2726 5.77682 0 0 -20.784zm-22.649 25.8463l13.147 0 0 -20.7828 5.77564 0 -12.3497 -14.2726 -12.3497 14.2726 5.77682 0 0 20.7828z"/></g><text x="0" y="115" fill="#000000" font-size="5px" font-weight="bold" font-family="'Helvetica Neue', Helvetica, Arial-Unicode, Arial, Sans-serif">Created by Richard</text><text x="0" y="120" fill="#000000" font-size="5px" font-weight="bold" font-family="'Helvetica Neue', Helvetica, Arial-Unicode, Arial, Sans-serif">from the Noun Project</text></svg>